<?xml version="1.0" encoding="utf-8"?><svg xml:space="preserve" viewBox="0 0 128 128" y="0px" x="0px" xmlns:xlink="http://www.w3.org/1999/xlink" xmlns="http://www.w3.org/2000/svg" id="圖層_1" version="1.1" width="200px" height="200px" style="width:100%;height:100%;background-size:initial;background-repeat-y:initial;background-repeat-x:initial;background-position-y:initial;background-position-x:initial;background-origin:initial;background-image:initial;background-color:rgb(255, 255, 255);background-clip:initial;background-attachment:initial;animation-play-state:paused" ><g class="ldl-scale" style="transform-origin:50% 50%;transform:rotate(0deg) scale(0.8, 0.8);animation-play-state:paused" ><style type="text/css" style="animation-play-state:paused" >.st0{fill:none}.st1{fill:#333}.st2{fill:#abbd81}.st3{fill:#494b32}</style>
<path d="z" class="st0" style="animation-play-state:paused" ></path>
<g style="animation-play-state:paused" ><path d="M106.6,14.8l-1.9-2l-2.2,1.9C83.7,31.5,61.4,31.9,52,32c-1.2,0-2,0-2.9,0.1C29.7,33,16.1,47.9,16.1,68.2 c0,21.5,16.6,36.6,40.3,36.6c25,0,42.1-17.3,49.3-32.1C110.2,63.7,116.1,24.8,106.6,14.8z M56.6,98.9c-20.6,0-34.4-12.3-34.4-30.7 c0-17,11.1-29.4,27.3-30.2c0.8,0,1.7,0,2.7-0.1c9.7-0.1,31.9-0.5,51.7-16.5c4.2,10.4,0.8,40.4-3.2,48.8 C94.2,83.5,78.8,98.9,56.6,98.9z" class="st1" style="fill:rgb(51, 51, 51);animation-play-state:paused" ></path>
<path d="M103.8,21.4c-19.8,16-42,16.4-51.7,16.5c-1,0-1.9,0-2.7,0.1c-16,0.8-27.3,13.2-27.3,30.2 c0,18.4,13.8,30.7,34.4,30.7c22.3,0,37.6-15.5,44-28.8C104.6,61.7,108.2,31.7,103.8,21.4z" class="st2" style="fill:rgb(171, 189, 129);animation-play-state:paused" ></path>
<g style="animation-play-state:paused" ><path d="M22.1,115.2c-2.3-3.6-3.5-7.8-4-12.2c-0.4-4.4,0-8.8,1.2-13.2c2.3-8.6,7.8-16.8,15.5-22c1.9-1.3,4-2.4,6-3.3 c2-0.9,4.1-1.7,6.1-2.3c4.1-1.3,8.1-2.2,11.9-2.9s7.6-1.5,11.3-2.7c3.7-1.2,7.2-2.6,10.8-4.9c-1.5,4-4.6,7.3-8.1,10 s-7.3,4.7-11,6.4c-7.6,3.3-14.8,5.8-20.4,9.6s-10.1,9.2-13.6,15.5C24.6,99.6,22.5,106.9,22.1,115.2z" class="st3" style="fill:rgb(73, 75, 50);animation-play-state:paused" ></path></g></g>
<path d="z" class="st0" style="animation-play-state:paused" ></path>
<metadata xmlns:d="https://loading.io/stock/" style="animation-play-state:paused" ><d:name style="animation-play-state:paused" >leaf</d:name>


<d:tags style="animation-play-state:paused" >born,newbie,novice,child,plant,grow,health,environment,leaf,web application</d:tags>


<d:license style="animation-play-state:paused" >by</d:license>


<d:slug style="animation-play-state:paused" >9bbomp</d:slug></metadata></g><!-- generated by https://loading.io/ --></svg>