<?xml version="1.0" encoding="utf-8"?><svg xml:space="preserve" viewBox="0 0 100 100" y="0" x="0" xmlns="http://www.w3.org/2000/svg" id="圖層_1" version="1.1" width="200px" height="200px" xmlns:xlink="http://www.w3.org/1999/xlink" style="width:100%;height:100%;background-size:initial;background-repeat-y:initial;background-repeat-x:initial;background-position-y:initial;background-position-x:initial;background-origin:initial;background-color:initial;background-clip:initial;background-attachment:initial;animation-play-state:paused" ><g class="ldl-scale" style="transform-origin:50% 50%;transform:rotate(0deg) scale(0.8, 0.8);animation-play-state:paused" ><path stroke-miterlimit="10" stroke-linejoin="round" stroke-linecap="round" stroke-width="3.5" stroke="#333" fill="#e15b64" d="M70 15.595h0c-11.046 0-20 8.954-20 20 0-11.046-8.954-20-20-20h0c-11.046 0-20 8.954-20 20v.265c0 22.091 30.335 48.545 40 48.545S90 57.951 90 35.86v-.265c0-11.046-8.954-20-20-20z" style="stroke:rgb(51, 51, 51);fill:rgb(225, 91, 100);animation-play-state:paused" ></path>
<path stroke-miterlimit="10" stroke-linejoin="round" stroke-width="3.5" stroke="#fff" fill="none" stroke-linecap="round" d="M20.518 47.752c.377.831.791 1.659 1.236 2.48" style="stroke:rgb(255, 255, 255);animation-play-state:paused" ></path>
<path stroke-miterlimit="10" stroke-linejoin="round" stroke-width="3.5" stroke="#fff" fill="none" stroke-linecap="round" d="M26.369 23.738C21.411 26.185 18 31.293 18 37.196v.199" style="stroke:rgb(255, 255, 255);animation-play-state:paused" ></path>
<path stroke-linecap="round" stroke="#000" stroke-miterlimit="10" stroke-linejoin="round" stroke-width="3.5" opacity=".1" d="M71.737 15.683A103.909 103.909 0 0 1 73 31.833c0 18.34-4.718 35.097-12.501 47.974C73.091 71.275 90 52.354 90 35.86v-.265c0-10.459-8.032-19.03-18.263-19.912z" style="animation-play-state:paused" ></path>
<metadata xmlns:d="https://loading.io/stock/" style="animation-play-state:paused" ><d:name style="animation-play-state:paused" >card</d:name>


<d:tags style="animation-play-state:paused" >card,poker,gambling,casino,game,suit,french deck,heart</d:tags>


<d:license style="animation-play-state:paused" >by</d:license>


<d:slug style="animation-play-state:paused" >vdlo49</d:slug></metadata></g><!-- generated by https://loading.io/ --></svg>